# xmcd
#
# Track frame offsets:
#	150
#	16372
#	27495
#	42497
#	57172
#	71687
#	87452
#	98395
#	115050
#	131440
#	144122
#
# Disc length: 2342 seconds
#
# Revision: 1
# Processed by: cddbd v1.5.2PL0 Copyright (c) Steve Scherf et al.
# Submitted via: audiograbber 1.83.01
#
DISCID=8c09240b
DTITLE=Various Artist - CDX 46 December 1992
DYEAR=1992
DGENRE=Country
TTITLE0=Marty Stuart - High On A Mountain Top
TTITLE1=Curtis Wright - If I Could Stop Lovin' You
TTITLE2=Stacy Dean Campbell - Poor Man's Rose
TTITLE3=Garth Brooks - Somewhere Other Than The Night
TTITLE4=Joe Diffie - Startin' Over Blues
TTITLE5=Lynn Anderson with Emmylou Harris - The Wayward Wind
TTITLE6=Shucks - Trouble Free
TTITLE7=Billy Dean - Tryin' To Hide A Fire In The Dark
TTITLE8=Martin Delray - What Kind Of Man
TTITLE9=Lorrie Morgan - What Part Of No
TTITLE10=Marty Stuart - Me And Hank Jumpin' Jack Flash - High On A Mountain Top
EXTD=
EXTT0=
EXTT1=
EXTT2=
EXTT3=
EXTT4=
EXTT5=
EXTT6=
EXTT7=
EXTT8=
EXTT9=
EXTT10=
PLAYORDER=
